<svg id="Layer_5" data-name="Layer 5" xmlns="http://www.w3.org/2000/svg" xmlns:xlink="http://www.w3.org/1999/xlink" viewBox="0 0 24 24">
  <defs>
    <radialGradient id="radial-gradient" cx="1.6068621" cy="21.0130518" fx="1.6068621" fy="21.0130518" r="25.5049344" gradientUnits="userSpaceOnUse">
      <stop offset="0" stop-color="#80d7f7"/>
      <stop offset=".0202877" stop-color="#79d5f6"/>
      <stop offset=".1577" stop-color="#54c9f4"/>
      <stop offset=".3015359" stop-color="#35bff2"/>
      <stop offset=".4515062" stop-color="#1eb7f0"/>
      <stop offset=".6103249" stop-color="#0db2ef"/>
      <stop offset=".7839248" stop-color="#03afef"/>
      <stop offset="1" stop-color="#00aeef"/>
    </radialGradient>
    <linearGradient id="linear-gradient" x1="19.8033996" y1="9.5000015" x2="22.1965943" y2="9.5000015" gradientUnits="userSpaceOnUse">
      <stop offset="0" stop-color="#b3e7fa"/>
      <stop offset="1" stop-color="#00aeef"/>
    </linearGradient>
    <linearGradient id="linear-gradient-2" x1="1.8033996" x2="4.1965943" xlink:href="#linear-gradient"/>
  </defs>
  <g id="Main_Logo" data-name="Main Logo">
    <path d="M22.9363736,21.2582329L18.0636254,2.7417671c-.0349937-.1329703-.176131-.2417687-.3136261-.2417687H6.2500007c-.1375091,0-.2786325,.1087983-.3136261,.2417687L1.0636264,21.2582329c-.0349937,.1329703,.0488763,.2417687,.1863714,.2417687H6.7499982c.1374951,0,.2809019-.108175,.3186833-.2403818l1.9313195-6.7596182c.0002381,.0002381,5.999914-.0003292,5.999998,0l1.9313195,6.7596182c.0377674,.1322068,.1811741,.2403818,.3186833,.2403818h5.5000005c.1374951,0,.221365-.1087983,.1863714-.2417687Zm-7.0845073-10.9582342h-7.5000045c-.1374951,0-.2260019-.1128048-.1966677-.2506747l.659122-3.0986446c.0293201-.1378733,.1658206-.2506782,.3033158-.2506782h5.9000041c.1374951,0,.2761389,.1128048,.3080927,.2506782l.7180425,3.0986446c.0319538,.1378698-.0544097,.2506747-.1919048,.2506747Z" fill="url(#radial-gradient)"/>
    <path d="M22.189363,11.2574659c.0333486,.1333946-.0518661,.2425356-.1893661,.2425356h-1c-.1375,0-.2772853-.109141-.3106339-.2425356l-.8787322-3.5149288c-.0333486-.1333946,.0518661-.2425356,.1893661-.2425356h1c.1375,0,.2772853,.109141,.3106339,.2425356l.8787322,3.5149288Z" fill="url(#linear-gradient)"/>
    <path d="M3.3106309,11.2574659c-.0333486,.1333946-.1731339,.2425356-.3106339,.2425356H1.9999969c-.1375,0-.2227147-.109141-.1893661-.2425356l.8787322-3.5149288c.0333486-.1333946,.1731339-.2425356,.3106339-.2425356h1c.1375,0,.2227147,.109141,.1893661,.2425356l-.8787322,3.5149288Z" fill="url(#linear-gradient-2)"/>
  </g>
</svg>