<?xml version="1.0" encoding="UTF-8"?>
<svg id="Layer_1" data-name="Layer 1" xmlns="http://www.w3.org/2000/svg" viewBox="0 0 24 24">
  <path d="M16,16c.0002652,.0002652,.0000481,.0001922,.000139,.0005561l1.8785932,7.5143726c.0666973,.2667892,.3462678,.4850713,.6212678,.4850713h5c.275,0,.4454295-.2182821,.3787322-.4850713L19.1212678,4.4850713c-.0666973-.2667892-.3462678-.4850713-.6212678-.4850713H5.5c-.275,0-.5545705,.2182821-.6212678,.4850713L.1212678,23.5149288c-.0666973,.2667892,.1037322,.4850713,.3787322,.4850713H5.5c.275,0,.5545705-.2182821,.6212678-.4850713l1.8787322-7.5149287m-.5-4c-.275,0-.4454295-.2182821-.3787322-.4850713l.7574644-3.0298575c.0666973-.2667892,.3462678-.4850713,.6212678-.4850713h7c.275,0,.5545705,.2182821,.6212678,.4850713l.7574644,3.0298575c.0666973,.2667892-.1037322,.4850713-.3787322,.4850713H7.5Z" fill="#00aeef"/>
  <path d="M21.9393661,11.7574644c.0333486,.1333946-.0518661,.2425356-.1893661,.2425356h-.5c-.1375,0-.2772853-.109141-.3106339-.2425356l-.8787322-3.5149287c-.0333486-.1333946,.0518661-.2425356,.1893661-.2425356h.5c.1375,0,.2772853,.109141,.3106339,.2425356l.8787322,3.5149287Z" fill="#007aa7"/>
  <path d="M3.0606339,11.7574644c-.0333486,.1333946-.1731339,.2425356-.3106339,.2425356h-.5c-.1375,0-.2227147-.109141-.1893661-.2425356l.8787322-3.5149287c.0333486-.1333946,.1731339-.2425356,.3106339-.2425356h.5c.1375,0,.2227147,.109141,.1893661,.2425356l-.8787322,3.5149287Z" fill="#007aa7"/>
  <rect x="11.5" y="1" width="1" height="3" fill="#007aa7"/>
  <rect x="10.0000005" y="0" width="3.9999953" height="1" rx=".4999993" ry=".4999993" fill="#00aeef"/>
</svg>