<?xml version="1.0" encoding="UTF-8"?>
<svg id="Layer_1" data-name="Layer 1" xmlns="http://www.w3.org/2000/svg" xmlns:xlink="http://www.w3.org/1999/xlink" viewBox="0 0 24 24">
  <defs>
    <clipPath id="clippath">
      <circle cx="64" cy="-28" r="16" fill="none"/>
    </clipPath>
    <linearGradient id="linear-gradient" x1="13" y1="27.5" x2="116" y2="27.5" gradientUnits="userSpaceOnUse">
      <stop offset="0" stop-color="#bfbfbf"/>
      <stop offset="1" stop-color="#000"/>
    </linearGradient>
  </defs>
  <g clip-path="url(#clippath)">
    <circle cx="64.5" cy="27.5" r="51.5" fill="url(#linear-gradient)"/>
  </g>
  <path d="M9,16c.0002431,.0002387,5.9999166-.0003275,6,0l1.9313197,6.759619c.0377742,.1322095,.1811803,.240381,.3186803,.240381h5.5c.1375,0,.2213695-.1087959,.1863767-.2417686L18.0636233,4.2417686c-.0349928-.1329727-.1761233-.2417686-.3136233-.2417686H6.25c-.1375,0-.2786305,.1087959-.3136233,.2417686L1.0636233,22.7582314c-.0349928,.1329727,.0488767,.2417686,.1863767,.2417686H6.75c.1375,0,.2809061-.1081714,.3186803-.240381l1.9313197-6.759619m-.75-4.25c-.1375,0-.2249322-.1096716-.1942938-.2437146l.6885876-3.0125707c.0306384-.134043,.1682062-.2437146,.3057062-.2437146h5.9c.1375,0,.2750678,.1096716,.3057062,.2437146l.6885876,3.0125707c.0306384,.134043-.0567938,.2437146-.1942938,.2437146h-7.5Z" fill="#00aeef"/>
  <path d="M22.1893661,12.7574644c.0333486,.1333946-.0518661,.2425356-.1893661,.2425356h-1c-.1375,0-.2772853-.109141-.3106339-.2425356l-.8787322-3.5149287c-.0333486-.1333946,.0518661-.2425356,.1893661-.2425356h1c.1375,0,.2772853,.109141,.3106339,.2425356l.8787322,3.5149287Z" fill="#00aeef"/>
  <path d="M3.3106339,12.7574644c-.0333486,.1333946-.1731339,.2425356-.3106339,.2425356h-1c-.1375,0-.2227147-.109141-.1893661-.2425356l.8787322-3.5149287c.0333486-.1333946,.1731339-.2425356,.3106339-.2425356h1c.1375,0,.2227147,.109141,.1893661,.2425356l-.8787322,3.5149287Z" fill="#00aeef"/>
  <rect x="11.5" y="1.9999997" width="1" height="2" fill="#00aeef" opacity=".5"/>
  <rect x="10.0000005" y="1" width="3.9999953" height="1" rx=".4999994" ry=".4999994" fill="#00aeef"/>
</svg>