<svg width="63" height="83" viewBox="0 0 63 83" fill="none" xmlns="http://www.w3.org/2000/svg">
<path fill-rule="evenodd" clip-rule="evenodd" d="M2.95027 0.264307C2.54781 1.01327 1.74272 3.10497 1.43984 4.18827C-0.135152 9.82241 1.37561 16.3702 5.35044 21.1377L6.09661 22.0326L9.07598 49.395C10.7147 64.4442 12.1005 77.0127 12.1553 77.3248C12.2102 77.637 12.5069 78.4128 12.8148 79.0488C13.7537 80.9892 15.6744 82.4326 17.8551 82.8365C18.4058 82.9387 24.2608 83 33.45 83C49.231 83 49.0816 83.0071 50.7441 82.1786C51.5854 81.7592 52.766 80.7069 53.3909 79.8198C54.417 78.3626 54.3584 78.7945 57.609 48.7058C59.295 33.0991 60.7114 20.1293 60.7563 19.8841L60.838 19.4382H54.7299H48.6218L50.0595 13.3172L51.4972 7.19611L56.8356 7.1533L62.174 7.11049V5.32136V3.53239L56.3238 3.58054L50.4736 3.62886L49.6897 4.07915C48.3997 4.82 48.2571 5.20023 46.5759 12.3848C45.7413 15.9521 45.0208 18.9983 44.9749 19.1545C44.8967 19.4201 44.3311 19.4382 36.1174 19.4382H27.3433L27.8959 18.2627C29.2298 15.4256 29.7439 12.8705 29.5977 9.8049C29.485 7.445 28.9597 5.29671 28.0126 3.32192C27.3964 2.03723 27.3135 1.93945 26.7528 1.83681C26.4227 1.77617 25.5754 1.77714 24.8701 1.83892C21.8952 2.09917 19.2388 2.9005 17.0064 4.21146C16.261 4.6491 15.6173 5.00712 15.5758 5.00712C15.5343 5.00712 15.0794 4.65493 14.5651 4.22443C11.8856 1.98242 8.67402 0.601735 5.08257 0.147885C3.35008 -0.0710142 3.12371 -0.058691 2.95027 0.264307ZM9.05093 4.93739C14.2927 7.34544 17.5575 12.8873 16.9579 18.3587L16.8396 19.4382H12.7061H8.57262L7.84586 18.5334C6.36281 16.6874 5.04623 13.6969 4.57506 11.104C4.22454 9.17544 4.52759 5.95957 5.22895 4.16411L5.39973 3.72664L6.61043 4.04947C7.27628 4.22703 8.37446 4.62656 9.05093 4.93739ZM25.3361 6.2336C25.8632 7.75357 26.0443 9.25505 25.9533 11.3526C25.8325 14.1368 25.1301 16.2444 23.5467 18.5743L22.9597 19.4382H21.7156H20.4715L20.5839 18.0853C20.8136 15.3186 20.1057 12.0793 18.6843 9.39272C17.7436 7.61493 17.686 7.78794 19.5214 6.87797C20.835 6.22663 21.9148 5.85709 23.3386 5.57204C24.9162 5.25618 25.0075 5.2865 25.3361 6.2336ZM44.0436 23.2082C44.002 23.3197 43.5293 25.2898 42.9934 27.5861L42.0189 31.7614H26.4016H10.7841L10.421 28.3969C10.2213 26.5464 10.0107 24.5764 9.9531 24.0189L9.84821 23.0055H26.9839C40.6222 23.0055 44.1041 23.0468 44.0436 23.2082ZM56.7002 23.2892C56.7017 23.4454 56.5024 25.4155 56.2572 27.6672L55.8113 31.7614H50.7595H45.7076L45.8226 31.3155C46.038 30.4795 47.7352 23.185 47.7352 23.095C47.7352 23.0458 49.7516 23.0055 52.2162 23.0055C56.3721 23.0055 56.6974 23.0261 56.7002 23.2892ZM55.3683 35.6124C55.365 36.5115 50.8779 76.8446 50.7426 77.1922C50.4825 77.8606 49.5394 78.809 48.8154 79.1303C48.1878 79.4089 47.3093 79.4256 33.2964 79.4256C19.1598 79.4256 18.4098 79.411 17.7617 79.1235C16.9435 78.7605 16.2589 78.0939 15.9195 77.3302C15.7542 76.9584 14.9182 69.8526 13.449 56.3321C12.2276 45.0924 11.2272 35.7686 11.2257 35.6124C11.2234 35.3436 12.384 35.3287 33.2964 35.3287C54.2081 35.3287 55.3695 35.3436 55.3683 35.6124ZM32.0091 42.9911L27.1557 47.7351L32.0111 52.4767L36.8667 57.2186L41.7605 52.4352L46.6543 47.6519L41.8435 42.9496C39.1975 40.3633 36.9944 38.2473 36.9476 38.2473C36.9008 38.2473 34.6785 40.382 32.0091 42.9911ZM39.2717 50.0009L36.9476 52.2716L34.5841 49.9625L32.2206 47.6533L34.5404 45.3825L36.8603 43.1116L39.2281 45.4209L41.596 47.7302L39.2717 50.0009ZM22.5087 68.8121V75.8655H29.7281H36.9476V68.8121V61.7587H29.7281H22.5087V68.8121ZM33.2964 68.8964V72.4667L29.6867 72.4231L26.0769 72.3793L26.032 69.0597C26.0071 67.2339 26.0235 65.6468 26.0682 65.533C26.1307 65.3739 26.977 65.3259 29.723 65.3259H33.2964V68.8964Z" fill="url(#paint0_linear_1004_2562)"/>
<defs>
<linearGradient id="paint0_linear_1004_2562" x1="0.621679" y1="38.6705" x2="62.174" y2="38.6705" gradientUnits="userSpaceOnUse">
<stop stop-color="#296D38"/>
<stop offset="1" stop-color="#3FA78E"/>
</linearGradient>
</defs>
</svg>
