<svg xmlns="http://www.w3.org/2000/svg" width="508" height="83" viewBox="0 0 508 83" fill="none">
<path fill-rule="evenodd" clip-rule="evenodd" d="M2.1241 0.264307C1.72164 1.01327 0.916553 3.10497 0.61367 4.18827C-0.961323 9.82241 0.549441 16.3702 4.52427 21.1377L5.27044 22.0326L8.24981 49.395C9.88854 64.4442 11.2743 77.0127 11.3291 77.3248C11.384 77.637 11.6808 78.4128 11.9886 79.0488C12.9275 80.9892 14.8482 82.4326 17.0289 82.8365C17.5796 82.9387 23.4346 83 32.6239 83C48.4048 83 48.2555 83.0071 49.9179 82.1786C50.7592 81.7592 51.9399 80.7069 52.5647 79.8198C53.5909 78.3626 53.5323 78.7945 56.7828 48.7058C58.4689 33.0991 59.8852 20.1293 59.9302 19.8841L60.0118 19.4382H53.9037H47.7956L49.2333 13.3172L50.6711 7.19611L56.0094 7.1533L61.3478 7.11049V5.32136V3.53239L55.4976 3.58054L49.6474 3.62886L48.8636 4.07915C47.5735 4.82 47.431 5.20023 45.7498 12.3848C44.9151 15.9521 44.1947 18.9983 44.1487 19.1545C44.0705 19.4201 43.5049 19.4382 35.2912 19.4382H26.5171L27.0697 18.2627C28.4036 15.4256 28.9177 12.8705 28.7715 9.8049C28.6588 7.445 28.1336 5.29671 27.1864 3.32192C26.5702 2.03723 26.4874 1.93945 25.9266 1.83681C25.5965 1.77617 24.7492 1.77714 24.0439 1.83892C21.069 2.09917 18.4126 2.9005 16.1802 4.21146C15.4349 4.6491 14.7911 5.00712 14.7496 5.00712C14.7081 5.00712 14.2532 4.65493 13.7389 4.22443C11.0594 1.98242 7.84785 0.601735 4.2564 0.147885C2.52391 -0.0710142 2.29753 -0.058691 2.1241 0.264307ZM8.22475 4.93739C13.4665 7.34544 16.7314 12.8873 16.1317 18.3587L16.0134 19.4382H11.8799H7.74645L7.01969 18.5334C5.53664 16.6874 4.22006 13.6969 3.74888 11.104C3.39837 9.17544 3.70142 5.95957 4.40278 4.16411L4.57356 3.72664L5.78426 4.04947C6.45011 4.22703 7.54829 4.62656 8.22475 4.93739ZM24.5099 6.2336C25.037 7.75357 25.2181 9.25505 25.1271 11.3526C25.0063 14.1368 24.304 16.2444 22.7205 18.5743L22.1335 19.4382H20.8894H19.6454L19.7577 18.0853C19.9874 15.3186 19.2796 12.0793 17.8581 9.39272C16.9174 7.61493 16.8598 7.78794 18.6952 6.87797C20.0088 6.22663 21.0886 5.85709 22.5124 5.57204C24.09 5.25618 24.1813 5.2865 24.5099 6.2336ZM43.2175 23.2082C43.1758 23.3197 42.7032 25.2898 42.1673 27.5861L41.1927 31.7614H25.5754H9.95791L9.59478 28.3969C9.39513 26.5464 9.18452 24.5764 9.12693 24.0189L9.02204 23.0055H26.1578C39.796 23.0055 43.2779 23.0468 43.2175 23.2082ZM55.874 23.2892C55.8755 23.4454 55.6762 25.4155 55.4311 27.6672L54.9851 31.7614H49.9334H44.8814L44.9964 31.3155C45.2119 30.4795 46.909 23.185 46.909 23.095C46.909 23.0458 48.9255 23.0055 51.39 23.0055C55.5459 23.0055 55.8712 23.0261 55.874 23.2892ZM54.5422 35.6124C54.5388 36.5115 50.0517 76.8446 49.9164 77.1922C49.6564 77.8606 48.7132 78.809 47.9893 79.1303C47.3616 79.4089 46.4831 79.4256 32.4702 79.4256C18.3336 79.4256 17.5836 79.411 16.9355 79.1235C16.1173 78.7605 15.4327 78.0939 15.0933 77.3302C14.928 76.9584 14.0921 69.8526 12.6228 56.3321C11.4015 45.0924 10.401 35.7686 10.3995 35.6124C10.3972 35.3436 11.5578 35.3287 32.4702 35.3287C53.3819 35.3287 54.5433 35.3436 54.5422 35.6124ZM31.183 42.9911L26.3295 47.7351L31.185 52.4767L36.0406 57.2186L40.9343 52.4352L45.8281 47.6519L41.0173 42.9496C38.3713 40.3633 36.1682 38.2473 36.1214 38.2473C36.0746 38.2473 33.8523 40.382 31.183 42.9911ZM38.4455 50.0009L36.1214 52.2716L33.7579 49.9625L31.3944 47.6533L33.7142 45.3825L36.0341 43.1116L38.4019 45.4209L40.7699 47.7302L38.4455 50.0009ZM21.6826 68.8121V75.8655H28.902H36.1214V68.8121V61.7587H28.902H21.6826V68.8121ZM32.4702 68.8964V72.4667L28.8605 72.4231L25.2508 72.3793L25.2058 69.0597C25.1809 67.2339 25.1973 65.6468 25.242 65.533C25.3046 65.3739 26.1508 65.3259 28.8968 65.3259H32.4702V68.8964Z" fill="url(#paint0_linear_131_1704)"/>
<path d="M94.4323 61.5V21.0826H106.153L114.987 57.3428H115.911L124.745 21.0826H136.466V61.5H130.404V25.4708H129.48L120.704 61.5H110.195L101.419 25.4708H100.495V61.5H94.4323ZM158.409 62.3083C155.56 62.3083 153.02 61.731 150.787 60.5762C148.593 59.3829 146.861 57.6892 145.591 55.4951C144.32 53.301 143.685 50.7028 143.685 47.7003V46.8343C143.685 43.8318 144.32 41.2528 145.591 39.0972C146.861 36.9031 148.593 35.2094 150.787 34.0162C153.02 32.8229 155.56 32.2263 158.409 32.2263C161.257 32.2263 163.798 32.8229 166.03 34.0162C168.263 35.2094 170.014 36.9031 171.284 39.0972C172.555 41.2528 173.19 43.8318 173.19 46.8343V47.7003C173.19 50.7028 172.555 53.301 171.284 55.4951C170.014 57.6892 168.263 59.3829 166.03 60.5762C163.798 61.731 161.257 62.3083 158.409 62.3083ZM158.409 56.9963C161.026 56.9963 163.143 56.1688 164.76 54.5136C166.415 52.8199 167.243 50.4911 167.243 47.5271V47.0075C167.243 44.0435 166.434 41.734 164.818 40.0788C163.201 38.3851 161.065 37.5383 158.409 37.5383C155.83 37.5383 153.713 38.3851 152.057 40.0788C150.441 41.734 149.632 44.0435 149.632 47.0075V47.5271C149.632 50.4911 150.441 52.8199 152.057 54.5136C153.713 56.1688 155.83 56.9963 158.409 56.9963ZM175.167 73.0478V67.909H179.035C180.151 67.909 180.709 67.3317 180.709 66.1769V33.0346H186.657V67.3317C186.657 69.0638 186.156 70.4496 185.155 71.4889C184.155 72.5282 182.75 73.0478 180.94 73.0478H175.167ZM183.712 29.1661C182.557 29.1661 181.576 28.8004 180.767 28.069C179.997 27.2992 179.612 26.3176 179.612 25.1243C179.612 23.9311 179.997 22.9688 180.767 22.2374C181.576 21.4675 182.557 21.0826 183.712 21.0826C184.905 21.0826 185.887 21.4675 186.657 22.2374C187.426 22.9688 187.811 23.9311 187.811 25.1243C187.811 26.3176 187.426 27.2992 186.657 28.069C185.887 28.8004 184.905 29.1661 183.712 29.1661ZM195.48 61.5V33.0346H201.427V61.5H195.48ZM198.482 29.1661C197.328 29.1661 196.346 28.8004 195.538 28.069C194.768 27.2992 194.383 26.3176 194.383 25.1243C194.383 23.9311 194.768 22.9688 195.538 22.2374C196.346 21.4675 197.328 21.0826 198.482 21.0826C199.676 21.0826 200.657 21.4675 201.427 22.2374C202.197 22.9688 202.582 23.9311 202.582 25.1243C202.582 26.3176 202.197 27.2992 201.427 28.069C200.657 28.8004 199.676 29.1661 198.482 29.1661ZM220.935 61.5C219.203 61.5 217.817 60.9803 216.778 59.941C215.777 58.9017 215.276 57.516 215.276 55.7838V38.0579H207.424V33.0346H215.276V23.6231H221.223V33.0346H229.711V38.0579H221.223V54.7445C221.223 55.8993 221.762 56.4767 222.84 56.4767H228.787V61.5H220.935ZM249.021 62.3083C246.172 62.3083 243.632 61.731 241.399 60.5762C239.205 59.3829 237.473 57.6892 236.203 55.4951C234.932 53.301 234.297 50.7028 234.297 47.7003V46.8343C234.297 43.8318 234.932 41.2528 236.203 39.0972C237.473 36.9031 239.205 35.2094 241.399 34.0162C243.632 32.8229 246.172 32.2263 249.021 32.2263C251.869 32.2263 254.41 32.8229 256.642 34.0162C258.875 35.2094 260.626 36.9031 261.897 39.0972C263.167 41.2528 263.802 43.8318 263.802 46.8343V47.7003C263.802 50.7028 263.167 53.301 261.897 55.4951C260.626 57.6892 258.875 59.3829 256.642 60.5762C254.41 61.731 251.869 62.3083 249.021 62.3083ZM249.021 56.9963C251.638 56.9963 253.755 56.1688 255.372 54.5136C257.027 52.8199 257.855 50.4911 257.855 47.5271V47.0075C257.855 44.0435 257.046 41.734 255.43 40.0788C253.813 38.3851 251.677 37.5383 249.021 37.5383C246.442 37.5383 244.325 38.3851 242.669 40.0788C241.053 41.734 240.244 44.0435 240.244 47.0075V47.5271C240.244 50.4911 241.053 52.8199 242.669 54.5136C244.325 56.1688 246.442 56.9963 249.021 56.9963Z" fill="#F5F5FF"/>
<path d="M285.867 61.5V21.0826H297.588L306.422 57.3428H307.346L316.18 21.0826H327.901V61.5H321.839V25.4708H320.915L312.138 61.5H301.63L292.854 25.4708H291.93V61.5H285.867ZM345.34 62.3083C343.3 62.3083 341.471 61.9619 339.855 61.269C338.276 60.5762 337.006 59.5561 336.044 58.2089C335.12 56.8616 334.658 55.2257 334.658 53.301C334.658 51.3379 335.12 49.7212 336.044 48.451C337.006 47.1422 338.296 46.1606 339.912 45.5063C341.568 44.8519 343.434 44.5247 345.513 44.5247H354.174V42.677C354.174 41.0219 353.673 39.6939 352.673 38.693C351.672 37.6922 350.132 37.1918 348.054 37.1918C346.013 37.1918 344.454 37.673 343.377 38.6353C342.299 39.5976 341.587 40.8486 341.24 42.3883L335.697 40.5984C336.159 39.0587 336.891 37.673 337.891 36.4412C338.931 35.171 340.297 34.1509 341.991 33.381C343.685 32.6112 345.725 32.2263 348.111 32.2263C351.807 32.2263 354.713 33.1693 356.83 35.0555C358.947 36.9416 360.006 39.6169 360.006 43.0812V54.8023C360.006 55.957 360.544 56.5344 361.622 56.5344H364.047V61.5H359.601C358.254 61.5 357.157 61.1536 356.31 60.4607C355.463 59.7678 355.04 58.8248 355.04 57.6315V57.4583H354.174C353.866 58.0357 353.404 58.7093 352.788 59.4791C352.172 60.249 351.268 60.9226 350.074 61.5C348.881 62.0389 347.303 62.3083 345.34 62.3083ZM346.206 57.4005C348.592 57.4005 350.517 56.7269 351.98 55.3797C353.443 53.9939 354.174 52.1078 354.174 49.7212V49.1438H345.859C344.281 49.1438 343.011 49.4903 342.049 50.1831C341.086 50.8375 340.605 51.8191 340.605 53.1278C340.605 54.4366 341.106 55.4759 342.106 56.2457C343.107 57.0156 344.474 57.4005 346.206 57.4005ZM369.83 61.5V33.0346H375.661V36.3835H376.585C377.047 35.1902 377.779 34.3241 378.779 33.7852C379.819 33.2078 381.089 32.9191 382.59 32.9191H385.997V38.2889H382.359C380.435 38.2889 378.856 38.8278 377.625 39.9056C376.393 40.9449 375.777 42.5616 375.777 44.7557V61.5H369.83ZM392.159 61.5V21.0826H398.106V44.1205H399.03L410.231 33.0346H418.141L403.764 46.8343L418.603 61.5H410.751L399.03 49.6635H398.106V61.5H392.159ZM435.374 62.3083C432.487 62.3083 429.966 61.7117 427.81 60.5184C425.655 59.2867 423.961 57.5737 422.729 55.3797C421.536 53.1471 420.939 50.5681 420.939 47.6426V46.9497C420.939 43.9858 421.536 41.4068 422.729 39.2127C423.922 36.9801 425.578 35.2672 427.695 34.0739C429.85 32.8421 432.333 32.2263 435.143 32.2263C437.876 32.2263 440.263 32.8421 442.303 34.0739C444.381 35.2672 445.998 36.9416 447.153 39.0972C448.308 41.2528 448.885 43.7741 448.885 46.661V48.9129H427.002C427.079 51.4149 427.906 53.4165 429.485 54.9177C431.101 56.3805 433.103 57.1118 435.49 57.1118C437.722 57.1118 439.397 56.6114 440.513 55.6106C441.668 54.6098 442.553 53.455 443.169 52.1463L448.077 54.6868C447.538 55.7646 446.749 56.9001 445.709 58.0934C444.709 59.2867 443.381 60.2875 441.725 61.0958C440.07 61.9042 437.953 62.3083 435.374 62.3083ZM427.06 44.3515H442.822C442.668 42.1959 441.899 40.5214 440.513 39.3282C439.127 38.0964 437.318 37.4805 435.085 37.4805C432.853 37.4805 431.024 38.0964 429.6 39.3282C428.214 40.5214 427.368 42.1959 427.06 44.3515ZM465.654 61.5C463.922 61.5 462.536 60.9803 461.497 59.941C460.496 58.9017 459.996 57.516 459.996 55.7838V38.0579H452.143V33.0346H459.996V23.6231H465.943V33.0346H474.431V38.0579H465.943V54.7445C465.943 55.8993 466.482 56.4767 467.56 56.4767H473.507V61.5H465.654ZM493.081 62.3083C489.462 62.3083 486.46 61.5 484.073 59.8833C481.687 58.2666 480.224 55.8223 479.685 52.5504L485.228 51.2224C485.536 52.8006 486.056 54.0517 486.787 54.9755C487.518 55.8993 488.423 56.5537 489.501 56.9386C490.617 57.3235 491.81 57.516 493.081 57.516C494.967 57.516 496.41 57.1503 497.411 56.419C498.45 55.6876 498.97 54.7445 498.97 53.5897C498.97 52.435 498.489 51.5881 497.527 51.0492C496.564 50.5103 495.14 50.0677 493.254 49.7212L491.291 49.3748C489.366 49.0283 487.615 48.5279 486.037 47.8736C484.458 47.2192 483.207 46.3146 482.283 45.1598C481.36 44.005 480.898 42.5231 480.898 40.7139C480.898 38.0194 481.899 35.9408 483.9 34.4781C485.902 32.9769 488.558 32.2263 491.868 32.2263C495.063 32.2263 497.681 32.9576 499.721 34.4203C501.799 35.8446 503.147 37.7885 503.762 40.252L498.219 41.811C497.873 40.0788 497.142 38.8663 496.025 38.1734C494.909 37.442 493.523 37.0763 491.868 37.0763C490.251 37.0763 488.981 37.3843 488.057 38.0002C487.134 38.5776 486.672 39.4052 486.672 40.483C486.672 41.6377 487.114 42.4846 488 43.0235C488.923 43.5624 490.155 43.9665 491.695 44.236L493.716 44.5824C495.756 44.9289 497.623 45.41 499.317 46.0259C501.01 46.6418 502.338 47.5271 503.301 48.6819C504.301 49.8367 504.802 51.3764 504.802 53.301C504.802 56.1495 503.743 58.3628 501.626 59.941C499.509 61.5192 496.661 62.3083 493.081 62.3083Z" fill="#F5F5FF"/>
<defs>
<linearGradient id="paint0_linear_131_1704" x1="-0.204493" y1="38.6705" x2="61.3478" y2="38.6705" gradientUnits="userSpaceOnUse">
<stop stop-color="#296D38"/>
<stop offset="1" stop-color="#3FA78E"/>
</linearGradient>
</defs>
</svg>